<mxfile host="Electron" modified="2024-03-15T16:08:38.499Z" agent="Mozilla/5.0 (X11; Linux x86_64) AppleWebKit/537.36 (KHTML, like Gecko) draw.io/24.0.4 Chrome/120.0.6099.109 Electron/28.1.0 Safari/537.36" etag="Q83TmGYpybJZJrNW0ccG" version="24.0.4" type="device">
  <diagram name="Page-1" id="9sxk3kHSQ-oGm2jKV_Yg">
    <mxGraphModel dx="1434" dy="870" grid="1" gridSize="10" guides="1" tooltips="1" connect="1" arrows="1" fold="1" page="1" pageScale="1" pageWidth="850" pageHeight="2000" math="0" shadow="0">
      <root>
        <mxCell id="0" />
        <mxCell id="1" parent="0" />
        <mxCell id="vRBM1Agjchc101VtKmlz-4" value="" style="edgeStyle=orthogonalEdgeStyle;rounded=0;orthogonalLoop=1;jettySize=auto;html=1;" edge="1" parent="1" source="vRBM1Agjchc101VtKmlz-1" target="vRBM1Agjchc101VtKmlz-3">
          <mxGeometry relative="1" as="geometry" />
        </mxCell>
        <mxCell id="vRBM1Agjchc101VtKmlz-1" value="Tin sorting" style="rounded=1;whiteSpace=wrap;html=1;" vertex="1" parent="1">
          <mxGeometry x="365" y="130" width="120" height="60" as="geometry" />
        </mxCell>
        <mxCell id="vRBM1Agjchc101VtKmlz-5" style="edgeStyle=orthogonalEdgeStyle;rounded=0;orthogonalLoop=1;jettySize=auto;html=1;entryX=0.5;entryY=0;entryDx=0;entryDy=0;" edge="1" parent="1" source="vRBM1Agjchc101VtKmlz-2" target="vRBM1Agjchc101VtKmlz-3">
          <mxGeometry relative="1" as="geometry" />
        </mxCell>
        <mxCell id="vRBM1Agjchc101VtKmlz-2" value="Average hue&amp;nbsp;&lt;div&gt;values&lt;/div&gt;" style="shape=parallelogram;perimeter=parallelogramPerimeter;whiteSpace=wrap;html=1;fixedSize=1;" vertex="1" parent="1">
          <mxGeometry x="210" y="200" width="120" height="60" as="geometry" />
        </mxCell>
        <mxCell id="vRBM1Agjchc101VtKmlz-6" style="edgeStyle=orthogonalEdgeStyle;rounded=0;orthogonalLoop=1;jettySize=auto;html=1;entryX=0.5;entryY=0;entryDx=0;entryDy=0;" edge="1" parent="1" source="vRBM1Agjchc101VtKmlz-3" target="vRBM1Agjchc101VtKmlz-15">
          <mxGeometry relative="1" as="geometry">
            <mxPoint x="420" y="500" as="targetPoint" />
          </mxGeometry>
        </mxCell>
        <mxCell id="vRBM1Agjchc101VtKmlz-13" value="Two" style="edgeLabel;html=1;align=center;verticalAlign=middle;resizable=0;points=[];" vertex="1" connectable="0" parent="vRBM1Agjchc101VtKmlz-6">
          <mxGeometry x="-0.35" y="-3" relative="1" as="geometry">
            <mxPoint as="offset" />
          </mxGeometry>
        </mxCell>
        <mxCell id="vRBM1Agjchc101VtKmlz-10" style="edgeStyle=orthogonalEdgeStyle;rounded=0;orthogonalLoop=1;jettySize=auto;html=1;" edge="1" parent="1" source="vRBM1Agjchc101VtKmlz-3" target="vRBM1Agjchc101VtKmlz-8">
          <mxGeometry relative="1" as="geometry" />
        </mxCell>
        <mxCell id="vRBM1Agjchc101VtKmlz-11" style="edgeStyle=orthogonalEdgeStyle;rounded=0;orthogonalLoop=1;jettySize=auto;html=1;entryX=0.5;entryY=0;entryDx=0;entryDy=0;" edge="1" parent="1" source="vRBM1Agjchc101VtKmlz-3" target="vRBM1Agjchc101VtKmlz-9">
          <mxGeometry relative="1" as="geometry" />
        </mxCell>
        <mxCell id="vRBM1Agjchc101VtKmlz-14" value="Three" style="edgeLabel;html=1;align=center;verticalAlign=middle;resizable=0;points=[];" vertex="1" connectable="0" parent="vRBM1Agjchc101VtKmlz-11">
          <mxGeometry x="-0.7778" y="2" relative="1" as="geometry">
            <mxPoint as="offset" />
          </mxGeometry>
        </mxCell>
        <mxCell id="vRBM1Agjchc101VtKmlz-3" value="How many tins are detected" style="rhombus;whiteSpace=wrap;html=1;" vertex="1" parent="1">
          <mxGeometry x="375" y="260" width="100" height="100" as="geometry" />
        </mxCell>
        <mxCell id="vRBM1Agjchc101VtKmlz-7" value="Sort values" style="rounded=0;whiteSpace=wrap;html=1;" vertex="1" parent="1">
          <mxGeometry x="365" y="630" width="120" height="60" as="geometry" />
        </mxCell>
        <mxCell id="vRBM1Agjchc101VtKmlz-8" value="If B or G, assign both B and G to this tin. If red, assign just red.&amp;nbsp;" style="rounded=0;whiteSpace=wrap;html=1;" vertex="1" parent="1">
          <mxGeometry x="210" y="440" width="120" height="60" as="geometry" />
        </mxCell>
        <mxCell id="vRBM1Agjchc101VtKmlz-9" value="Sort all tins using hue values in ascending order" style="rounded=0;whiteSpace=wrap;html=1;" vertex="1" parent="1">
          <mxGeometry x="510" y="440" width="120" height="60" as="geometry" />
        </mxCell>
        <mxCell id="vRBM1Agjchc101VtKmlz-12" value="One" style="text;html=1;align=center;verticalAlign=middle;resizable=0;points=[];autosize=1;strokeColor=none;fillColor=none;" vertex="1" parent="1">
          <mxGeometry x="305" y="288" width="50" height="30" as="geometry" />
        </mxCell>
        <mxCell id="vRBM1Agjchc101VtKmlz-16" value="" style="edgeStyle=orthogonalEdgeStyle;rounded=0;orthogonalLoop=1;jettySize=auto;html=1;" edge="1" parent="1" source="vRBM1Agjchc101VtKmlz-15" target="vRBM1Agjchc101VtKmlz-7">
          <mxGeometry relative="1" as="geometry" />
        </mxCell>
        <mxCell id="vRBM1Agjchc101VtKmlz-17" value="Yes" style="edgeLabel;html=1;align=center;verticalAlign=middle;resizable=0;points=[];" vertex="1" connectable="0" parent="vRBM1Agjchc101VtKmlz-16">
          <mxGeometry x="0.05" y="-1" relative="1" as="geometry">
            <mxPoint as="offset" />
          </mxGeometry>
        </mxCell>
        <mxCell id="vRBM1Agjchc101VtKmlz-19" style="edgeStyle=orthogonalEdgeStyle;rounded=0;orthogonalLoop=1;jettySize=auto;html=1;entryX=0.5;entryY=0;entryDx=0;entryDy=0;" edge="1" parent="1" source="vRBM1Agjchc101VtKmlz-15" target="vRBM1Agjchc101VtKmlz-18">
          <mxGeometry relative="1" as="geometry" />
        </mxCell>
        <mxCell id="vRBM1Agjchc101VtKmlz-20" value="Other combination" style="edgeLabel;html=1;align=center;verticalAlign=middle;resizable=0;points=[];" vertex="1" connectable="0" parent="vRBM1Agjchc101VtKmlz-19">
          <mxGeometry x="-0.5628" y="-3" relative="1" as="geometry">
            <mxPoint as="offset" />
          </mxGeometry>
        </mxCell>
        <mxCell id="vRBM1Agjchc101VtKmlz-15" value="Tins are B&amp;nbsp;&lt;div&gt;and G&lt;/div&gt;" style="rhombus;whiteSpace=wrap;html=1;" vertex="1" parent="1">
          <mxGeometry x="385" y="510" width="80" height="80" as="geometry" />
        </mxCell>
        <mxCell id="vRBM1Agjchc101VtKmlz-18" value="Sorting is very difficult. The tins which is not R is B and G at the same time" style="rounded=0;whiteSpace=wrap;html=1;" vertex="1" parent="1">
          <mxGeometry x="540" y="630" width="140" height="70" as="geometry" />
        </mxCell>
      </root>
    </mxGraphModel>
  </diagram>
</mxfile>
